<?xml version="1.0" encoding="UTF-8"?>
<svg version="1.1" xmlns="http://www.w3.org/2000/svg" width="500" height="202">
<path d="M0 0 C16.58628243 8.1166914 25.46936035 25.84514838 31.49560547 42.48168945 C36.87081073 58.1985113 39.53103467 74.42207565 40 91 C41.25683594 90.75443359 41.25683594 90.75443359 42.5390625 90.50390625 C46.20517307 89.97012717 49.67239385 89.90256975 53.375 89.9375 C54.62023437 89.94652344 55.86546875 89.95554687 57.1484375 89.96484375 C58.08945312 89.97644531 59.03046875 89.98804687 60 90 C57.14735543 61.46145658 54.18489046 32.83897581 40.00390625 7.3203125 C39 5 39 5 40 2 C59.61667527 15.9100061 70.34101664 37.68750211 75 61 C76.52681611 69.97070505 77.76916107 78.98475954 79 88 C85.27 87.67 91.54 87.34 98 87 C97.14935675 75.00593011 95.72322509 63.55631553 93.125 51.8125 C92.75834229 50.13160278 92.75834229 50.13160278 92.38427734 48.41674805 C90.10064304 38.47277451 86.47699064 29.60268542 81.8125 20.5625 C78.11851211 13.35553633 78.11851211 13.35553633 77 10 C89.3184883 13.32834339 96.93207226 24.95690157 102.9921875 35.44921875 C111.64890255 51.26228785 117 69.92341193 117 88 C123.27 87.67 129.54 87.34 136 87 C136.3403125 83.16375 136.3403125 83.16375 136.6875 79.25 C138.56638805 61.08629518 143.29371182 41.61266779 153 26 C157.4587856 26.66753412 161.35303982 28.2961446 165.4375 30.125 C166.14124756 30.43848389 166.84499512 30.75196777 167.57006836 31.07495117 C169.71809769 32.03995884 171.86007822 33.01715806 174 34 C175.19882812 34.55042969 176.39765625 35.10085937 177.6328125 35.66796875 C186.66039037 39.99668206 194.84374524 45.22018428 203 51 C203.60279785 51.42700195 204.2055957 51.85400391 204.82666016 52.29394531 C212.07202119 57.47005183 212.07202119 57.47005183 215 60 C215 60.66 215 61.32 215 62 C215.58265625 62.268125 216.1653125 62.53625 216.765625 62.8125 C219.02786601 64.01480991 220.80576318 65.33825913 222.75 67 C223.36359375 67.515625 223.9771875 68.03125 224.609375 68.5625 C226 70 226 70 226 72 C226.99 72.33 227.98 72.66 229 73 C245.85967302 90.98365123 245.85967302 90.98365123 246.0625 101.125 C244.66117429 108.84073315 238.28586507 116.41208549 233 122 C232.34 122 231.68 122 231 122 C230.74863281 122.58910156 230.49726563 123.17820312 230.23828125 123.78515625 C228.84544599 126.27644202 227.3791428 127.62300414 225.1875 129.4375 C222.86574816 131.37304167 220.68102156 133.31948556 218.54296875 135.4609375 C203.60952314 150.37144387 184.38273935 161.28404482 165.375 170.0625 C164.50915283 170.46927979 163.64330566 170.87605957 162.7512207 171.29516602 C161.93355225 171.66311279 161.11588379 172.03105957 160.2734375 172.41015625 C159.54560059 172.74152588 158.81776367 173.07289551 158.06787109 173.41430664 C155.58274166 174.11818214 154.36528556 174.02219467 152 173 C150.4735864 170.44773758 149.2828911 168.09256408 148.125 165.375 C147.78130371 164.57956787 147.43760742 163.78413574 147.08349609 162.96459961 C139.39368325 144.41091891 136 125.00553889 136 105 C129.73 105 123.46 105 117 105 C117.0928125 107.10375 117.0928125 107.10375 117.1875 109.25 C117.08429489 136.04892653 107.8979621 163.94757755 88.86328125 183.15625 C85.04774523 186.70288157 82.05872399 188.50456391 77 190 C77.24645264 189.49774902 77.49290527 188.99549805 77.74682617 188.47802734 C91.20656197 160.91776553 96.2201055 135.3802756 99 105 C89.1 105.495 89.1 105.495 79 106 C78.896875 107.711875 78.79375 109.42375 78.6875 111.1875 C76.25762299 141.46245411 69.56339194 171.54755876 46.8984375 193.40625 C44.39455315 195.50827637 42.02692969 196.78922813 39 198 C39.63276495 194.70296159 40.92959074 191.81430521 42.32299805 188.77368164 C54.28917125 162.65105596 57.68615695 135.38150039 60 107 C50.1 107.495 50.1 107.495 40 108 C39.938125 110.289375 39.87625 112.57875 39.8125 114.9375 C38.89799101 133.33808326 34.59088499 151.24546103 27 168 C26.2575 169.69189453 26.2575 169.69189453 25.5 171.41796875 C20.30151986 182.56362318 11.73374622 195.13478815 0 200 C1.28729842 195.92780351 2.79475547 192.01571309 4.46166992 188.08984375 C7.81612037 180.18478223 10.76362084 172.30377306 13 164 C13.33773438 162.75476563 13.67546875 161.50953125 14.0234375 160.2265625 C18.34574442 143.51607068 20.21123534 126.21682852 21 109 C19.515 109.495 19.515 109.495 18 110 C16.66474283 110.07973476 15.32587917 110.10771338 13.98828125 110.09765625 C12.85229492 110.09282227 12.85229492 110.09282227 11.69335938 110.08789062 C10.51483398 110.07532227 10.51483398 110.07532227 9.3125 110.0625 C8.51521484 110.05798828 7.71792969 110.05347656 6.89648438 110.04882812 C4.93095743 110.0370585 2.96546915 110.01912348 1 110 C0.98582031 110.75539063 0.97164062 111.51078125 0.95703125 112.2890625 C-0.23049019 139.69834118 -9.33496072 167.70901478 -29.4921875 186.93359375 C-35.64083176 192 -35.64083176 192 -39 192 C-37.53097944 188.20852789 -35.86691495 184.5483647 -34.125 180.875 C-23.94566005 158.79100824 -19.300453 135.18842579 -18 111 C-27.9 111.495 -27.9 111.495 -38 112 C-38.20625 114.578125 -38.4125 117.15625 -38.625 119.8125 C-40.96191272 142.81542622 -50.11506806 163.93909149 -67.58203125 179.265625 C-69.83877039 180.88435226 -71.28767682 181.59817434 -74 182 C-73.55269531 181.07960937 -73.10539063 180.15921875 -72.64453125 179.2109375 C-62.12533433 157.30835207 -57.65959407 135.99679191 -55 112 C-60.94 112 -66.88 112 -73 112 C-73.3403125 115.4959375 -73.3403125 115.4959375 -73.6875 119.0625 C-75.79005457 137.17394613 -83.34670099 154.44691612 -97.02734375 166.8359375 C-98.875 168.25 -98.875 168.25 -102 170 C-102.99 169.67 -103.98 169.34 -105 169 C-104.55269531 168.175 -104.10539063 167.35 -103.64453125 166.5 C-94.43540162 148.90643892 -91.56018904 131.56613743 -89 112 C-95.27 112 -101.54 112 -108 112 C-108.3403125 114.8153125 -108.3403125 114.8153125 -108.6875 117.6875 C-110.20280138 127.54233236 -113.7040017 136.56563234 -119 145 C-119.66 145 -120.32 145 -121 145 C-121.2578125 145.59296875 -121.515625 146.1859375 -121.78125 146.796875 C-123.09769895 149.17660965 -124.42580782 150.50978792 -126.5 152.25 C-127.1084375 152.77078125 -127.716875 153.2915625 -128.34375 153.828125 C-130 155 -130 155 -132 155 C-130.85460271 151.37290859 -129.53677387 147.87710652 -128.0625 144.375 C-123.71810967 133.52209924 -122.29246674 122.53278013 -121 111 C-126.94 111 -132.88 111 -139 111 C-139.226875 112.2375 -139.45375 113.475 -139.6875 114.75 C-141.83171679 124.2715221 -145.65063372 135.49399813 -153.9375 141.375 C-155.58134556 142.32949097 -157.28632791 143.1774374 -159 144 C-158.09782558 141.21829553 -157.18707966 138.45854419 -156.08203125 135.75 C-152.74925945 127.37337815 -151.37156674 118.86323055 -150 110 C-152.60478883 109.9190687 -155.20706653 109.85954566 -157.8125 109.8125 C-158.55048828 109.78736328 -159.28847656 109.76222656 -160.04882812 109.73632812 C-164.27896461 109.58902662 -164.27896461 109.58902662 -167.88671875 111.51171875 C-168.25410156 112.00285156 -168.62148437 112.49398437 -169 113 C-169.66 113 -170.32 113 -171 113 C-171.268125 113.639375 -171.53625 114.27875 -171.8125 114.9375 C-173 117 -173 117 -176 118 C-176 118.66 -176 119.32 -176 120 C-179.46153846 123 -179.46153846 123 -182 123 C-182.495 124.485 -182.495 124.485 -183 126 C-185.5625 127.1875 -185.5625 127.1875 -188 128 C-188 128.66 -188 129.32 -188 130 C-190.01953125 131.6640625 -190.01953125 131.6640625 -192.8125 133.625 C-193.82054687 134.33914062 -194.82859375 135.05328125 -195.8671875 135.7890625 C-197.41792969 136.88347656 -197.41792969 136.88347656 -199 138 C-200.81416219 139.33107084 -202.62671041 140.6643447 -204.4375 142 C-215.80701442 150.23970427 -227.65359559 157.55848092 -239.75244141 164.66992188 C-241.19680515 165.52467896 -242.63234162 166.39463162 -244.05615234 167.28320312 C-245.66030705 168.26429119 -247.32627124 169.14298299 -249 170 C-249.99 169.67 -250.98 169.34 -252 169 C-251.70343506 168.47792969 -251.40687012 167.95585937 -251.10131836 167.41796875 C-244.74348899 156.17641096 -238.89414937 144.95301866 -234 133 C-233.61328125 132.09121094 -233.2265625 131.18242187 -232.828125 130.24609375 C-224.77000385 110.93759576 -222.10885966 93.38410086 -230.0625 73.5 C-231.02200166 71.32455329 -232.0046816 69.15929458 -233 67 C-233.34981934 66.23091309 -233.69963867 65.46182617 -234.06005859 64.66943359 C-239.38485824 53.00463471 -245.11724569 41.82288178 -252 31 C-249 30 -249 30 -246.66259766 31.12060547 C-245.30207275 31.98516357 -245.30207275 31.98516357 -243.9140625 32.8671875 C-242.90674072 33.50148682 -241.89941895 34.13578613 -240.86157227 34.78930664 C-239.25946899 35.82172485 -239.25946899 35.82172485 -237.625 36.875 C-236.53823975 37.5652124 -235.45147949 38.2554248 -234.33178711 38.96655273 C-227.67128799 43.2178186 -221.09032087 47.55613933 -214.6484375 52.1328125 C-211.33770892 54.46692498 -207.93840602 56.64922709 -204.51171875 58.80859375 C-204.01285156 59.20175781 -203.51398438 59.59492187 -203 60 C-203 60.66 -203 61.32 -203 62 C-202.28070313 62.24621094 -201.56140625 62.49242187 -200.8203125 62.74609375 C-197.67438821 64.14476646 -195.50076542 65.84039703 -192.875 68.0625 C-191.91464844 68.86816406 -190.95429688 69.67382812 -189.96484375 70.50390625 C-188.98644531 71.32761719 -188.00804687 72.15132813 -187 73 C-184.22720185 75.24831895 -181.44968039 77.49023853 -178.6640625 79.72265625 C-176 82 -176 82 -173.6484375 84.49609375 C-166.51237326 91.95435487 -159.88661088 92.61974574 -150 93 C-151.32812908 81.52449876 -153.08278419 71.3277928 -157.890625 60.7734375 C-158.25671875 59.85820313 -158.6228125 58.94296875 -159 58 C-158.505 57.01 -158.505 57.01 -158 56 C-148.16415746 61.27776917 -143.48162748 71.82846848 -140 82 C-138.88051463 86.27753976 -139 89.31412914 -139 94 C-133.06 94 -127.12 94 -121 94 C-122.13582156 79.72873619 -123.47697326 66.51782215 -129.08203125 53.203125 C-130.20254304 50.51389671 -131.12299432 47.77718466 -132 45 C-127.23439379 46.40164889 -124.04117557 49.15411474 -121 53 C-121 53.66 -121 54.32 -121 55 C-120.34 55 -119.68 55 -119 55 C-111.84960212 68.44274801 -108 79.67673998 -108 95 C-101.4 95 -94.8 95 -88 95 C-88.33 94.34 -88.66 93.68 -89 93 C-89.24387914 91.23155606 -89.44052438 89.4564897 -89.61328125 87.6796875 C-91.72499692 67.09886375 -95.20570986 48.50032582 -105 30 C-97.03799582 31.12760681 -92.47857599 37.10486596 -87.8125 43.25 C-77.21737631 58.44809328 -72.45058596 76.59462956 -73 95 C-67.06 95 -61.12 95 -55 95 C-55.28500129 91.0827482 -55.57783769 87.16633315 -55.875 83.25 C-55.95363281 82.15816406 -56.03226563 81.06632812 -56.11328125 79.94140625 C-56.92334286 69.4106053 -58.41807867 59.16734626 -61.3125 49 C-61.5290625 48.23236328 -61.745625 47.46472656 -61.96875 46.67382812 C-64.88947801 36.60322548 -69.17119553 27.28774306 -74 18 C-64.28062354 20.55098004 -57.82541061 29.2626121 -52.625 37.4375 C-42.53693204 54.89603394 -37.14370851 74.78200655 -38 95 C-37.42475586 94.83701416 -36.84951172 94.67402832 -36.25683594 94.50610352 C-34.04291893 94.00962472 -32.15326203 93.88520256 -29.890625 93.90234375 C-29.13652344 93.90556641 -28.38242188 93.90878906 -27.60546875 93.91210938 C-26.82816406 93.92048828 -26.05085937 93.92886719 -25.25 93.9375 C-24.45722656 93.94201172 -23.66445312 93.94652344 -22.84765625 93.95117188 C-20.89840492 93.96291435 -18.94919262 93.98084854 -17 94 C-17.15855469 93.29488281 -17.31710938 92.58976562 -17.48046875 91.86328125 C-18.01139051 88.93722376 -18.18174295 86.15755304 -18.3125 83.1875 C-19.98315683 58.988289 -24.86157121 33.14773753 -37.70703125 12.21875 C-39 10 -39 10 -39 8 C-26.82913978 11.42305444 -18.00532279 25.55860034 -12.140625 35.88671875 C-2.71226001 53.38759978 0.32963049 73.39169182 1 93 C10.9 92.505 10.9 92.505 21 92 C18.72439717 60.8376271 14.39122738 32.49286516 0.8828125 4.07421875 C0 2 0 2 0 0 Z M177 73 C176.67 73.66 176.34 74.32 176 75 C176.33 75.66 176.66 76.32 177 77 C175.68 76.67 174.36 76.34 173 76 C172.87625 76.804375 172.7525 77.60875 172.625 78.4375 C172.41875 79.283125 172.2125 80.12875 172 81 C171.01 81.495 171.01 81.495 170 82 C171.21044132 86.60742865 171.21044132 86.60742865 173 91 C174.32 90.67 175.64 90.34 177 90 C176.67 91.32 176.34 92.64 176 94 C177.98 94.66 179.96 95.32 182 96 C181.67 96.66 181.34 97.32 181 98 C181.86625 97.7834375 181.86625 97.7834375 182.75 97.5625 C184.17715266 97.20571184 185.61515329 96.88815395 187.0625 96.625 C189.36951432 95.88080183 190.42674348 94.809245 192 93 C191.67 92.01 191.34 91.02 191 90 C191.99 90 192.98 90 194 90 C194 90.66 194 91.32 194 92 C194.66 91.67 195.32 91.34 196 91 C196.4979784 83.20102111 196.4979784 83.20102111 194 76 C193.01 75.67 192.02 75.34 191 75 C190.34 74.01 189.68 73.02 189 72 C184.37558679 70.86570997 181.21031818 70.64717514 177 73 Z M196 83 C196.66 83.66 197.32 84.32 198 85 C198 84.34 198 83.68 198 83 C197.34 83 196.68 83 196 83 Z " fill="#000000" transform="translate(253,1)"/>
<path d="" fill="#040404" transform="translate(0,0)"/>
<path d="" fill="#070707" transform="translate(0,0)"/>
<path d="" fill="#010101" transform="translate(0,0)"/>
</svg>
